# xmcd
#
# Track frame offsets: 
#        150
#        2944
#        49265
#        80290
#        107250
#        159067
#        189053
#        229001
#        259770
#
# Disc length: 3942 seconds
#
# Revision: 0
# Processed by: cddbd v1.5.2PL0 Copyright (c) Steve Scherf et al.
# Submitted via: ExactAudioCopy v0.99pb5
#
DISCID=580f6409
DTITLE=Eric Clapton  - Flawless Disc 09 (Bonus) 7-8-97
DYEAR=1900
DGENRE=
TTITLE0=Introduction
TTITLE1=Full House
TTITLE2=Marcus #1
TTITLE3=Ruthie
TTITLE4=Snakes
TTITLE5=Going Down Slow
TTITLE6=Peeper
TTITLE7=Suggestions
TTITLE8=Third Degree
EXTD=
EXTT0=
EXTT1=
EXTT2=
EXTT3=
EXTT4=
EXTT5=
EXTT6=
EXTT7=
EXTT8=
PLAYORDER=
